<svg xmlns="http://www.w3.org/2000/svg" width="57.787" height="58.072" viewBox="0 0 57.787 58.072">
  <path id="_5279112_camera_instagram_social_media_instagram_logo_icon" data-name="5279112_camera_instagram_social media_instagram logo_icon" d="M28.893,0A29.036,29.036,0,1,1,0,29.036,28.983,28.983,0,0,1,28.893,0Zm0,10.889c-4.9,0-5.519.021-7.445.109a13.2,13.2,0,0,0-4.384.844,9.258,9.258,0,0,0-5.281,5.307,13.381,13.381,0,0,0-.839,4.405c-.088,1.936-.109,2.554-.109,7.482s.021,5.547.109,7.482a13.381,13.381,0,0,0,.839,4.405,9.257,9.257,0,0,0,5.281,5.308,13.2,13.2,0,0,0,4.384.843c1.926.088,2.541.109,7.445.109s5.519-.021,7.445-.109a13.2,13.2,0,0,0,4.383-.843A9.257,9.257,0,0,0,46,40.923a13.381,13.381,0,0,0,.839-4.405c.088-1.936.109-2.554.109-7.482s-.021-5.547-.109-7.482A13.381,13.381,0,0,0,46,17.149a9.257,9.257,0,0,0-5.282-5.307A13.2,13.2,0,0,0,36.339,11C34.413,10.909,33.8,10.889,28.893,10.889Zm0,3.27c4.822,0,5.393.018,7.3.106a9.95,9.95,0,0,1,3.353.625,6,6,0,0,1,3.427,3.444,10.082,10.082,0,0,1,.622,3.37c.087,1.914.105,2.488.105,7.333s-.018,5.42-.105,7.333a10.082,10.082,0,0,1-.622,3.37,6,6,0,0,1-3.427,3.444,9.947,9.947,0,0,1-3.353.625c-1.9.087-2.475.106-7.3.106s-5.393-.018-7.3-.106a9.947,9.947,0,0,1-3.353-.625,5.995,5.995,0,0,1-3.427-3.444,10.084,10.084,0,0,1-.622-3.37c-.087-1.914-.105-2.488-.105-7.333s.018-5.42.105-7.333a10.084,10.084,0,0,1,.622-3.37,5.995,5.995,0,0,1,3.427-3.444,9.95,9.95,0,0,1,3.353-.625c1.9-.087,2.475-.106,7.3-.106Zm0,5.559a9.319,9.319,0,1,0,9.273,9.319,9.3,9.3,0,0,0-9.273-9.319Zm0,15.368a6.049,6.049,0,1,1,6.019-6.049A6.034,6.034,0,0,1,28.893,35.085ZM40.7,19.349a2.167,2.167,0,1,1-2.167-2.178A2.172,2.172,0,0,1,40.7,19.349Z" fill="#fff" fill-rule="evenodd"/>
</svg>
