<svg xmlns="http://www.w3.org/2000/svg" width="59.33" height="58.072" viewBox="0 0 59.33 58.072">
  <path id="_5279120_play_video_youtube_youtuble_logo_icon" data-name="5279120_play_video_youtube_youtuble logo_icon" d="M29.665,0C46.037,0,59.33,13.011,59.33,29.036S46.037,58.072,29.665,58.072,0,45.062,0,29.036,13.292,0,29.665,0ZM47.431,20.3a4.6,4.6,0,0,0-3.278-3.209c-2.892-.759-14.488-.759-14.488-.759s-11.6,0-14.488.759A4.6,4.6,0,0,0,11.9,20.3c-.775,2.83-.775,8.736-.775,8.736s0,5.906.775,8.736a4.6,4.6,0,0,0,3.278,3.209c2.892.758,14.488.758,14.488.758s11.6,0,14.488-.758a4.6,4.6,0,0,0,3.278-3.209c.775-2.83.775-8.736.775-8.736S48.206,23.131,47.431,20.3ZM25.957,34.481V23.592l9.634,5.444-9.634,5.444Z" fill="#fff" fill-rule="evenodd"/>
</svg>
